<svg xmlns="http://www.w3.org/2000/svg" width="500" height="190">
  <path transform="matrix(.1,0,0,-.1,-460,220)" d="M4980.26 1935.08 4746.01 729.988C4727.61 635.301 4789.67 558.258 4884.36 558.258H9157.14 9187.14L9192.97 588.258 9427.21 1793.35C9445.62 1888.04 9383.56 1965.08 9288.87 1965.08H5016.09 4986.09" fill="#8c2b86"/>
  <path transform="matrix(.0911419,0,-.017716201,.0911419,-460,220)" stroke-width="65.8314" stroke-linecap="round" stroke-miterlimit="4" stroke-linejoin="miter" fill="none" stroke="#ffffff" d="M5051.59-2123.15V-800.936C5051.59-697.046 5136.12-612.515 5240.01-612.515H9928.06 9960.98V-645.431-1967.65C9960.98-2071.54 9876.45-2156.06 9772.56-2156.06H5084.5 5051.59V-2123.15Z"/>
  <path transform="matrix(.1,0,0,-.1,-460,220)" d="M5146.2 1793.1V1793.1L4960 835.18C4948.73 777.223 4986.59 730.23 5044.55 730.23H7156.09L7362.69 1793.1" fill="#ffffff"/>
  <path transform="matrix(.1,0,0,-.1,-460,220)" d="M8964.55 1426.28H9168.15C9174.65 1458.77 9177.9 1489.09 9177.9 1517.25 9177.9 1602.8 9124.83 1663.45 8962.38 1663.45 8876.83 1663.45 8818.35 1641.79 8776.11 1615.8 8718.72 1580.06 8674.31 1522.66 8651.57 1414.37 8628.83 1299.57 8658.07 1257.34 8763.13 1198.86 8797.77 1178.28 8833.51 1164.2 8859.5 1147.96 8883.33 1131.71 8901.74 1120.88 8889.83 1071.07 8882.24 1037.49 8862.75 1002.84 8822.68 1002.84 8784.79 1002.84 8775.04 1033.16 8782.61 1071.07L8790.19 1106.8H8580.1L8575.76 1086.23C8541.11 916.203 8619.08 859.891 8785.86 859.891 8986.21 859.891 9083.68 932.453 9121.58 1111.14 9177.9 1388.38 8841.09 1307.15 8871.42 1462.02 8879 1493.42 8899.57 1520.5 8933.14 1520.5 8971.05 1520.5 8978.63 1491.26 8971.05 1457.69" fill="#ffffff"/>
  <path transform="matrix(.1,0,0,-.1,-460,220)" d="M8285.39 1103.56C8271.31 1037.5 8258.32 1010.42 8216.08 1010.42 8173.84 1010.42 8171.68 1037.5 8185.76 1103.56L8300.55 1655.87H8083.96L7977.83 1144.71C7936.67 953.027 7976.74 867.469 8186.84 867.469 8378.53 867.469 8470.58 959.516 8510.65 1144.71L8616.78 1655.87H8400.18" fill="#ffffff"/>
  <path transform="matrix(.1,0,0,-.1,-460,220)" d="M7674.45 1492.34H7703.69C7747.01 1492.34 7764.34 1467.43 7754.59 1417.61 7743.76 1361.3 7705.86 1343.97 7676.62 1343.97H7644.13ZM7330.07 875.055H7653.87C7787.08 875.055 7891.04 943.273 7922.45 1098.14 7954.94 1255.17 7861.8 1274.66 7818.48 1280.08L7819.57 1282.24C7870.47 1293.07 7952.77 1334.23 7978.76 1456.6 8005.84 1585.48 7937.61 1648.29 7802.24 1648.29H7490.34ZM7614.89 1207.52H7653.87C7704.77 1207.52 7714.52 1166.38 7702.61 1114.38 7692.86 1063.48 7663.62 1030.99 7615.97 1030.99H7578.07" fill="#ffffff"/>
  <path transform="matrix(.1,0,0,-.1,-460,220)" d="M6869.1 1162.04H6770.55L6886.43 1479.35H6888.59ZM6857.19 875.047H7080.28L7058.62 1648.29H6786.79L6443.49 875.047H6666.58L6712.07 993.098H6857.19" fill="#8c2b86"/>
  <path transform="matrix(.1,0,0,-.1,-460,220)" d="M5937.39 875.051H6390.07L6425.8 1050.49H6189.71L6314.26 1648.29H6097.66" fill="#8c2b86"/>
  <path transform="matrix(.1,0,0,-.1,-460,220)" d="M5649.21 875.051H5865.8L6026.08 1648.29H5809.49Z" fill="#8c2b86"/>
  <path transform="matrix(.1,0,0,-.1,-460,220)" d="M5130.58 875.051H5583.26L5619 1050.49H5382.91L5507.45 1648.29H5290.86" fill="#8c2b86"/>
</svg>
